<?xml version="1.0" encoding="utf-8"?>
<!-- Generator: Adobe Illustrator 22.0.0, SVG Export Plug-In . SVG Version: 6.00 Build 0)  -->
<svg version="1.1" id="图层_1" xmlns="http://www.w3.org/2000/svg" xmlns:xlink="http://www.w3.org/1999/xlink" x="0px" y="0px"
	 viewBox="0 0 1300 1500" enable-background="new 0 0 1300 1500" xml:space="preserve">
<g>
	<path fill="#317A65" d="M437,1411.8c0,0,14.4-362.7,263.1-444.8s462-29.3,462-29.3s-217,85.7-268.3,241.3
		c-51.3,155.6-129.5,237.4-193.3,246.9C636.7,1435.5,437,1411.8,437,1411.8z"/>
	<linearGradient id="SVGID_1_" gradientUnits="userSpaceOnUse" x1="457.3636" y1="640.0417" x2="1023.0121" y2="1205.6902">
		<stop  offset="1.082549e-07" style="stop-color:#AFE53F"/>
		<stop  offset="1" style="stop-color:#006F45"/>
	</linearGradient>
	<path fill="url(#SVGID_1_)" d="M250,1322.6c0,0,72.1-793.1,696.6-1083.3c0,0-58.7,136.8-8.2,376.3s164.7,642.6-73.6,716.9
		C626.4,1406.8,250,1322.6,250,1322.6z"/>
	<path fill="#7EB75A" d="M219.7,1400.6c0,0-67.4-510.4,61-899S406.1,102.1,406.4,50c0,0,167.7,444.2,164.1,637.1
		s-180.3,722.7-180.3,722.7L219.7,1400.6z"/>
	<g>
		<defs>
			<path id="XMLID_52_" d="M220.2,1404.5c0,0-59.7-452.6,54.1-797.1s111.2-354.3,111.4-400.5c0,0,148.7,393.8,145.5,564.9
				s-159.9,640.8-159.9,640.8L220.2,1404.5z"/>
		</defs>
		<use xlink:href="#XMLID_52_"  overflow="visible" fill="#6D9950"/>
		<clipPath id="XMLID_2_">
			<use xlink:href="#XMLID_52_"  overflow="visible"/>
		</clipPath>
		<g clip-path="url(#XMLID_2_)">
			<path fill="#54753E" d="M373.5,158.4c9.3,137,13.6,274.3,12.9,411.5c-0.4,68.6-2.1,137.3-5,205.8c-1.4,34.3-3.3,68.5-5.3,102.8
				l-3.3,51.4l-3.9,51.3c-5.5,68.4-12.3,136.7-19.9,204.9c-7.4,68.2-14.6,136.4-18,204.9c-1.6,34.2-2.3,68.5-1.5,102.8
				c0,4.3,0.3,8.6,0.4,12.8l0.5,12.8l0.7,12.8c0.3,4.3,0.4,8.6,0.8,12.8c0.7,8.5,1.2,17.1,2.1,25.6l1.3,12.8c0.5,4.3,1,8.5,1.5,12.8
				c8.2,68,24.4,135.3,51.1,198.6c-27-63.1-43.6-130.4-52.2-198.4c-0.5-4.3-1.1-8.5-1.6-12.8l-1.3-12.8c-1-8.5-1.5-17.1-2.3-25.6
				c-0.4-4.3-0.6-8.6-0.9-12.8l-0.8-12.8l-0.5-12.9c-0.2-4.3-0.4-8.6-0.5-12.9c-1-34.3-0.5-68.6,1-102.9
				c3-68.6,9.8-136.9,16.9-205.1c7.2-68.2,13.7-136.5,18.8-204.8l3.6-51.3l3.1-51.3c1.8-34.2,3.5-68.5,4.7-102.7
				c2.5-68.5,3.8-137.1,3.9-205.6c0-137.1-5.1-274.2-15.1-410.9l0,0c-0.2-2.5,1.7-4.6,4.2-4.8C371.1,154.1,373.3,155.9,373.5,158.4
				L373.5,158.4z"/>
		</g>
		<g clip-path="url(#XMLID_2_)">
			<path fill="#54753E" d="M379.4,542.7c22.6-38.6,52-72.9,86-101.4c34.1-28.5,72.9-51.2,114.3-66.4
				c-81.9,33.3-151,95.4-192.5,172.2c-1.2,2.2-3.9,3-6.1,1.8c-2.2-1.2-3-3.9-1.8-6.1C379.4,542.7,379.4,542.7,379.4,542.7z"/>
		</g>
		<g clip-path="url(#XMLID_2_)">
			<path fill="#54753E" d="M378,604.9c-6.8-19.8-17.8-38.1-31.4-54.3c-13.6-16.2-29.7-30.5-47.1-42.8C282,495.5,263.2,485,244,475.5
				c-19.3-9.5-39-18-58.8-26.5c20.1,7.8,40.1,15.6,59.8,24.5c19.6,8.9,38.9,18.8,57.1,30.6c18.1,11.9,35.1,25.8,49.7,42.1
				c14.6,16.2,26.8,35,34.8,55.7l0,0c0.9,2.3-0.3,4.9-2.6,5.8c-2.3,0.9-4.9-0.3-5.8-2.6C378,605,378,605,378,604.9z"/>
		</g>
		<g clip-path="url(#XMLID_2_)">
			<path fill="#54753E" d="M377.9,732.1l6.6-6.8l3.3-3.4l3.5-3.2l7-6.5l7.3-6.1l3.6-3c1.2-1,2.5-1.9,3.8-2.9l7.5-5.7
				c2.6-1.8,5.2-3.6,7.8-5.4l3.9-2.7c1.3-0.9,2.7-1.7,4-2.5l8-5c2.7-1.6,5.5-3.1,8.3-4.6l4.1-2.3c1.4-0.8,2.8-1.4,4.2-2.1l8.5-4.2
				c2.9-1.3,5.8-2.5,8.6-3.8l4.3-1.9c1.4-0.6,2.9-1.1,4.4-1.7l8.8-3.4c3-1.1,6-2,8.9-3c23.9-7.9,48.8-12.3,73.8-13.8
				c12.5-0.7,25.1-0.6,37.5,0.9c12.4,1.5,24.7,4.5,36.2,9.4c-11.6-4.6-23.9-7.1-36.3-8.2c-12.4-1.1-24.9-0.9-37.2,0.2
				c-24.7,2.2-49.2,7.4-72.5,15.9c-2.9,1.1-5.8,2.1-8.7,3.2l-8.6,3.6c-1.4,0.6-2.9,1.1-4.3,1.8l-4.2,2c-2.8,1.3-5.6,2.6-8.4,4
				l-8.2,4.4c-1.4,0.7-2.7,1.4-4.1,2.2l-4,2.4c-2.6,1.6-5.3,3.1-7.9,4.8l-7.7,5.1c-1.3,0.9-2.6,1.7-3.8,2.6l-3.7,2.7
				c-2.5,1.8-5,3.6-7.4,5.5l-7.2,5.8c-1.2,1-2.4,1.9-3.6,2.9l-3.4,3.1l-6.9,6.1l-6.6,6.5L394,728l-3.1,3.4l-6.2,6.8l-0.2,0.2
				c-1.7,1.8-4.5,1.9-6.4,0.3S376.1,734.1,377.9,732.1C377.9,732.2,377.9,732.2,377.9,732.1z"/>
		</g>
		<g clip-path="url(#XMLID_2_)">
			<path fill="#54753E" d="M367.4,881.7c-16.9-25.2-34-50.2-54.1-72.7c-10-11.2-20.8-21.8-32.6-31.1c-11.8-9.3-24.6-17.3-38.3-23.4
				c-3.4-1.6-6.9-3-10.4-4.3c-3.5-1.3-7.1-2.5-10.7-3.5c-7.2-2.1-14.6-3.8-22-5.2c-14.9-2.8-30-4.3-45.1-5.4
				c-15.1-1.1-30.3-1.8-45.5-1.1c-15.1,0.7-30.3,2.9-44.7,7.7c14.3-5.2,29.5-7.8,44.7-8.9c15.2-1.1,30.5-0.7,45.7,0
				c15.2,0.7,30.4,1.8,45.6,4.3c7.6,1.2,15.1,2.8,22.5,4.8c3.7,1,7.4,2.1,11,3.3c3.6,1.2,7.3,2.6,10.8,4.1
				c14.2,5.9,27.6,13.9,39.9,23.1c12.3,9.2,23.6,19.8,34.1,31c21,22.4,39,47.3,56.5,72.2c1.4,2,1,4.8-1.1,6.3
				C371.7,884.3,368.9,883.8,367.4,881.7C367.4,881.8,367.4,881.7,367.4,881.7z"/>
		</g>
		<g clip-path="url(#XMLID_2_)">
			<path fill="#54753E" d="M360.2,1011.2c1.8-5.7,4.4-11.1,7.6-16.2c3.1-5,6.9-9.6,10.9-13.8c8.2-8.4,17.9-15,28.1-20.2
				c10.2-5.2,21-9,31.9-12.1c10.9-3.1,21.8-5.6,33-7.5c11.1-1.9,22.3-3.2,33.6-3.6c11.3-0.4,22.6,0,33.7,1.5
				c11.2,1.5,22.2,4.2,32.7,8.2c10.5,4,20.4,9.4,29.4,16.1c-9.2-6.4-19.3-11.4-29.8-15c-10.5-3.6-21.5-5.9-32.5-7
				c-11.1-1.1-22.2-1.2-33.3-0.4c-11.1,0.8-22.1,2.4-32.9,4.6c-10.9,2.2-21.6,5.1-32.2,8.5c-10.5,3.4-20.8,7.4-30.4,12.7
				c-9.6,5.2-18.3,11.7-25.5,19.6c-3.6,4-6.8,8.2-9.4,12.8c-2.6,4.6-4.7,9.4-6.1,14.4l0,0c-0.7,2.4-3.2,3.8-5.6,3.1
				s-3.8-3.2-3.1-5.6C360.2,1011.3,360.2,1011.2,360.2,1011.2z"/>
		</g>
		<g clip-path="url(#XMLID_2_)">
			<path fill="#54753E" d="M349.9,1128c-16.7-42.6-49.5-79-90.6-100.3c-41.1-21.3-90.2-27.3-135.7-16.2c45.1-12.6,95-8.3,137.8,12.1
				c42.8,20.5,77.9,56.8,96.9,100.9c1,2.3-0.1,4.9-2.3,5.9c-2.3,1-4.9-0.1-5.9-2.3C350,1128.1,350,1128,349.9,1128z"/>
		</g>
		<g clip-path="url(#XMLID_2_)">
			<path fill="#54753E" d="M337.4,1265.1c5-6.6,9.9-13.8,15.8-20.3c6-6.5,12.7-12.2,19.9-17.1c14.5-9.7,30.8-16.3,47.5-20.2
				c16.7-3.9,33.9-5.3,50.9-4.7c17,0.6,33.9,3,50.4,6.7c-16.7-3-33.6-4.6-50.5-4.5c-16.9,0.2-33.7,2.3-49.8,6.8
				c-16.1,4.6-31.4,11.7-44.7,21.4c-6.6,4.9-12.7,10.5-17.9,16.7c-5.2,6.2-9.6,13.3-14.5,20.4l0,0c-1.4,2-4.2,2.5-6.3,1.1
				c-2-1.4-2.5-4.2-1.1-6.3C337.3,1265.3,337.4,1265.2,337.4,1265.1z"/>
		</g>
	</g>
	<g>
		<path fill="#66842C" d="M576.6,1404.5c2.5-2.2,3.8-5.1,4.7-8c0.8-3,1.2-6.1,1.6-9.3c0.9-6.5,1.8-13,2.8-19.4
			c0.5-3.2,0.9-6.5,1.5-9.7l1.9-9.6c0.6-3.2,1.3-6.4,2-9.6c0.7-3.2,1.3-6.4,2.1-9.6c3.3-12.7,6.4-25.5,10.6-38
			c2-6.3,3.9-12.6,6.1-18.8c2.3-6.2,4.5-12.4,6.9-18.5c9.6-24.5,20.5-48.7,33.2-71.9c6-11.8,13-23,19.7-34.4
			c0.8-1.4,1.7-2.8,2.6-4.2l2.7-4.2l5.4-8.3l5.4-8.3c1.8-2.8,3.8-5.4,5.7-8.1l11.5-16.1l12.1-15.7l6.1-7.8l6.3-7.6
			c4.3-5,8.4-10.1,12.8-15.1l13.3-14.6c2.2-2.4,4.4-4.9,6.7-7.3l7-7l7-7l3.5-3.5c1.1-1.2,2.3-2.3,3.5-3.4l14.5-13.4
			c19.4-17.7,40.1-34.6,62.9-48.5c11.4-6.9,23.3-13.1,35.6-18.1c12.3-5,25.1-8.8,38.1-10.7c-11.7,5.9-22.7,12.5-33.1,19.9
			c-10.4,7.3-20.3,15.3-29.7,23.7c-18.8,16.8-36.1,35.3-52.9,54.4l-12.6,14.4c-4.2,4.8-8.2,9.7-12.3,14.5l-6.1,7.3
			c-2,2.4-4,4.9-6,7.4l-12,14.8l-11.6,15.1l-5.8,7.5l-5.6,7.7l-11.3,15.3l-10.9,15.5c-1.8,2.6-3.7,5.1-5.5,7.8l-5.3,7.9
			c-3.5,5.3-7.1,10.5-10.5,15.8c-6.7,10.7-13.7,21.3-20.1,32.2l-4.9,8.1c-1.7,2.7-3.3,5.4-4.8,8.2c-3.1,5.5-6.3,11-9.4,16.5
			l-2.4,4.1l-2.2,4.2c-1.5,2.8-2.9,5.6-4.5,8.4c-3,5.6-6.2,11.1-8.9,16.8c-2.8,5.7-5.8,11.3-8.7,17c-1.5,2.8-2.8,5.7-4.1,8.6
			c-1.3,2.9-2.8,5.7-4.1,8.6l-4.2,8.6c-0.7,1.4-1.4,2.9-2,4.4l-2,4.4l-7.9,17.5c-2.6,5.9-4.9,11.8-7.5,17.7l-3.8,8.9l-3.5,9
			c-2.4,6-4.8,12-7.3,18c-1.2,3.1-2.5,6.2-4.3,9.2c-0.9,1.4-2,2.8-3.2,4C579.5,1402.9,578.1,1403.8,576.6,1404.5z"/>
		<path fill="#487019" d="M584.1,1422.8l-21.1-4.7c-3.7-0.8-6-4.5-5.2-8.2l157-704.9c0.8-3.7,4.5-6,8.2-5.2l21.1,4.7
			c3.7,0.8,6,4.5,5.2,8.2l-157,704.9C591.5,1421.3,587.8,1423.7,584.1,1422.8z"/>
		<path fill="#DB7575" d="M846.6,584.7C844,666.3,828.7,769,718.4,736.1c-82.4-24.6-66.8-127.2-24.2-196.9
			c27.9-45.7,69.1-65.2,99.7-56.1S848.2,531.2,846.6,584.7z"/>
		<path fill="#DB7575" d="M862.3,607.4c-14.4,80.4-44.5,179.8-148.8,131.1c-78-36.4-47.6-135.6,4.8-198.3
			c34.3-41.1,77.9-54.4,106.8-40.9C853.9,512.8,871.7,554.7,862.3,607.4z"/>
		<path fill="#F79292" d="M820.4,574.3c11.8,80.8,14.7,184.6-99.6,171.5c-85.5-9.8-88.1-113.5-58.3-189.6
			c19.5-49.9,56.6-76.3,88.3-72.7C782.5,487.2,812.7,521.3,820.4,574.3z"/>
		<path fill="#FFBBBB" d="M846.1,595.8c-4.5,78.6-19.9,178.3-107.8,154c-65.7-18.1-50-117.7-13.6-187.5c23.9-45.8,57.6-67.2,82-60.5
			C831.1,508.6,849.1,544.3,846.1,595.8z"/>
		<path fill="#66842C" d="M571.7,1420.8c5.6-13.1,7.6-26.9,8.1-40.6c0.4-13.8-0.5-27.6-1.4-41.7c-1.6-28.2-2.8-56.3-3.7-84.5
			l-0.6-21.1l-0.4-21.1c-0.4-14.1-0.5-28.1-0.8-42.1c-0.3-14-0.5-28-0.9-42c-0.4-14-0.7-27.9-1.4-41.8c-0.5-13.9-1.3-27.8-2.2-41.6
			c-0.9-13.8-2.1-27.6-3.5-41.4c-1.3-13.8-3.2-27.4-5.1-41.1c-2.1-13.6-4.4-27.2-7.3-40.6c-5.7-26.8-13.6-53.1-24.9-78
			c-5.7-12.4-12.4-24.4-20.2-35.9c-7.8-11.4-16.7-22.2-26.8-32.2c12.3,7.2,23.6,16.2,33.7,26.5c10.2,10.3,19.2,21.8,27.1,34
			c15.7,24.5,27.1,51.6,35.5,79.3c8.4,27.8,14,55.9,18.1,84.3c2.1,14.2,3.5,28.4,4.9,42.7c1.1,14.2,2.1,28.5,2.6,42.7
			c0.5,14.2,0.8,28.5,0.9,42.6c0,14.2,0,28.4-0.4,42.5c-0.6,28.3-1.8,56.4-3.4,84.6c-1.6,28.2-3.4,56.3-5.8,84.5
			c-1.2,14-2.4,28.4-5.5,42.6c-1.5,7.1-3.6,14.1-6.3,20.8C579.5,1408.8,576.1,1415.2,571.7,1420.8z"/>
		<g>
			<path fill="#269976" d="M558.7,1421.1c3.6-59.8,9.6-119.8,20.5-179c5.5-29.6,12.3-59,20.6-88c4.2-14.5,8.8-28.9,13.8-43.1
				c5.1-14.2,10.5-28.3,16.5-42.1c5.9-13.9,12.4-27.5,19.3-40.9c1.8-3.3,3.4-6.7,5.3-10l5.5-9.9c3.8-6.5,7.5-13,11.5-19.4
				c7.9-12.8,16.4-25.3,25.4-37.3c2.2-3,4.6-6,6.9-8.9c2.4-2.9,4.7-5.9,7.2-8.7c4.8-5.8,9.9-11.4,15.1-16.8
				c20.8-21.8,44.5-40.9,70.9-55.2c26.4-14.2,55.4-23.7,85-26.2c-29.4,4.2-57.4,15.2-82.4,30.6c-25,15.5-47,35.3-65.9,57.6
				c-4.7,5.6-9.3,11.3-13.7,17.2c-2.2,2.9-4.3,5.9-6.5,8.9c-2.1,3-4.2,6-6.2,9.1c-8.1,12.2-15.6,24.7-22.6,37.6
				c-3.6,6.4-6.8,13-10.1,19.5l-4.7,9.9c-1.6,3.3-3,6.7-4.5,10c-5.9,13.4-11.5,26.9-16.4,40.7c-5,13.7-9.5,27.6-13.6,41.7
				c-4,14-7.7,28.2-10.9,42.4c-6.4,28.5-11.4,57.3-15,86.4c-7.3,58.1-9.8,116.7-9.9,175.5L558.7,1421.1z"/>
		</g>
	</g>
	<path fill="#2E562E" d="M1105.1,1314.9l-233.5,18c0,0,130.9-42.2,222.3-72.1c-14.4-53.6-37.7-103.5-68.2-147.7l-209.5,110.5
		l114.2-212.7c-54.6-43.4-118.9-74.6-189-89.4L704.1,1088l-78.6-175.7c-81.9,4-158.2,29.9-223.5,72.2l102,158.4l-191.7-82.8
		c-36.3,39.4-66.2,85.2-87.9,135.6l230.4,96.7l-266,35.2c-2.5,19.9-3.7,40.1-3.7,60.7c0,18.5,1,36.8,3,54.8h919.4
		c2-18,3-36.3,3-54.8C1110.6,1363.3,1108.7,1338.8,1105.1,1314.9z"/>
	<path fill="#356035" d="M1071.9,1310.8l-216.6,15.8c0,0,121.4-37.2,206.1-63.5c-13.4-47.3-35-91.2-63.2-130.2l-194.3,97.4
		l105.9-187.5c-50.7-38.3-110.3-65.7-175.3-78.8L700,1110.8L627.2,956c-75.9,3.5-146.7,26.4-207.3,63.6l94.6,139.6l-177.8-72.9
		c-33.7,34.7-61.4,75.1-81.5,119.5l213.6,85.2l-246.7,31.1c-2.3,17.5-3.5,35.4-3.5,53.5c0,16.3,1,32.4,2.8,48.3h852.6
		c1.9-15.8,2.8-32,2.8-48.3C1077,1353.5,1075.2,1331.9,1071.9,1310.8z"/>
	<path fill="#5A845A" d="M816.5,1371.8l-89.7,6.6c0,0,50.3-15.4,85.4-26.3c-5.5-19.6-14.5-37.8-26.2-53.9l-80.5,40.3l43.9-77.6
		c-21-15.9-45.7-27.2-72.6-32.6l-14.3,60.8l-30.2-64.1c-31.4,1.5-60.8,10.9-85.8,26.3l39.2,57.8l-73.6-30.2
		c-14,14.4-25.4,31.1-33.7,49.5l88.5,35.3l-102.2,12.9c-0.9,7.3-1.4,14.7-1.4,22.2c0,6.8,0.4,13.4,1.2,20h353.1
		c0.8-6.6,1.2-13.2,1.2-20C818.6,1389.5,817.8,1380.5,816.5,1371.8z"/>
</g>
</svg>
