<?xml version="1.0" encoding="utf-8"?>
<!-- Generator: Adobe Illustrator 22.0.0, SVG Export Plug-In . SVG Version: 6.00 Build 0)  -->
<svg version="1.1" id="图层_1" xmlns="http://www.w3.org/2000/svg" xmlns:xlink="http://www.w3.org/1999/xlink" x="0px" y="0px"
	 viewBox="0 0 1300 1500" enable-background="new 0 0 1300 1500" xml:space="preserve">
<g>
	<path fill-rule="evenodd" clip-rule="evenodd" fill="#C1C296" d="M536.9,1217.4H327.7c-18.8,0-34.8-14.9-34.1-33.1l34.1-965.1
		c0.6-18.2,15.3-33.1,34.1-33.1h141.1c18.8,0,33.5,14.9,34.1,33.1l34.1,965.1C571.7,1202.5,555.7,1217.4,536.9,1217.4"/>
	<path fill-rule="evenodd" clip-rule="evenodd" fill="#BB2726" d="M331.9,163.8h200.8c19.7,0,35.8,15.6,35.8,34.7v0
		c0,19.1-16.1,34.7-35.8,34.7H331.9c-19.7,0-35.8-15.6-35.8-34.7v0C296.1,179.4,312.2,163.8,331.9,163.8"/>
	<path fill-rule="evenodd" clip-rule="evenodd" fill="#C1C296" d="M930.3,1096.9H721c-18.8,0-34.7-14.9-34.1-33.1L721,98.7
		c0.6-18.2,15.3-33.1,34.1-33.1h141c18.8,0,33.5,14.9,34.1,33.1l34.1,965.1C965.1,1082,949.1,1096.9,930.3,1096.9"/>
	<polygon fill-rule="evenodd" clip-rule="evenodd" fill="#F4C41C" points="135,1468 1130,1468 1130,917.8 795.6,591.1 471.5,901.4 
		472.3,687 135,917.8 	"/>
	<rect x="360.8" y="1045.2" fill-rule="evenodd" clip-rule="evenodd" fill="#F7F4CA" width="138.3" height="134"/>
	<rect x="563.3" y="1045.2" fill-rule="evenodd" clip-rule="evenodd" fill="#F7F4CA" width="138.3" height="134"/>
	<rect x="765.9" y="1045.2" fill-rule="evenodd" clip-rule="evenodd" fill="#C1C296" width="138.3" height="134"/>
	<path fill-rule="evenodd" clip-rule="evenodd" fill="#BB2726" d="M723.5,43.3h204.3c20,0,36.4,15.9,36.4,35.3
		c0,19.4-16.4,35.3-36.4,35.3H723.5c-20,0-36.4-15.9-36.4-35.3C687.1,59.2,703.5,43.3,723.5,43.3"/>
	<polygon fill-rule="evenodd" clip-rule="evenodd" fill="#78241C" points="324.8,350.1 539.8,350.1 537.8,294.2 326.8,294.2 	"/>
	<polygon fill-rule="evenodd" clip-rule="evenodd" fill="#78241C" points="543.7,410.1 320.9,410.1 318.9,467 545.7,467 	"/>
	<polygon fill-rule="evenodd" clip-rule="evenodd" fill="#78241C" points="547.7,523.8 316.9,523.8 314.9,580.6 549.7,580.6 	"/>
	<polygon fill-rule="evenodd" clip-rule="evenodd" fill="#78241C" points="551.7,637.5 312.9,637.5 310.9,694.3 461.7,694.3 
		472.3,687 472.3,694.3 553.7,694.3 	"/>
	<polygon fill-rule="evenodd" clip-rule="evenodd" fill="#78241C" points="555.7,751.1 472.1,751.1 471.8,808 557.7,808 	"/>
	<polygon fill-rule="evenodd" clip-rule="evenodd" fill="#78241C" points="471.6,864.8 471.5,901.4 509.7,864.8 	"/>
	<path fill-rule="evenodd" clip-rule="evenodd" fill="#B39131" d="M904.1,1179.3H765.9v-82.4v-51.6h138.3v51.6V1179.3z
		 M632.5,1179.3V1464H1130V917.8L953.1,745L795.6,591.1l-41,39.2l-54.2,51.9l-67.9,65v298h55.1h14v45.8v88.2H632.5z"/>
	<polygon fill-rule="evenodd" clip-rule="evenodd" fill="#C1C296" points="632.5,1179.3 701.6,1179.3 701.6,1091 701.6,1045.2 
		687.6,1045.2 632.5,1045.2 	"/>
	<path fill-rule="evenodd" clip-rule="evenodd" fill="#F7F4CA" d="M825.7,620.5V113.9H723.5c-1,0-2,0-3-0.1l-20.1,568.4l95.2-91.1
		L825.7,620.5z"/>
	<polygon fill-rule="evenodd" clip-rule="evenodd" fill="#78241C" points="716.2,232.5 935,232.5 932.9,175.7 718.2,175.7 	"/>
	<polygon fill-rule="evenodd" clip-rule="evenodd" fill="#78241C" points="937,289.3 714.2,289.3 712.2,346.2 939,346.2 	"/>
	<polygon fill-rule="evenodd" clip-rule="evenodd" fill="#78241C" points="941,403 710.2,403 708.2,459.8 943,459.8 	"/>
	<polygon fill-rule="evenodd" clip-rule="evenodd" fill="#78241C" points="945,516.7 706.2,516.7 704.2,573.5 947,573.5 	"/>
	<polygon fill-rule="evenodd" clip-rule="evenodd" fill="#78241C" points="949,630.3 836.9,630.3 895.1,687.2 951,687.2 	"/>
	<polygon fill-rule="evenodd" clip-rule="evenodd" fill="#78241C" points="754.5,630.3 702.2,630.3 700.3,682.2 	"/>
	<polygon fill-rule="evenodd" clip-rule="evenodd" fill="#BB2726" points="754.5,630.3 702.2,630.3 700.4,682.1 	"/>
	<polygon fill-rule="evenodd" clip-rule="evenodd" fill="#BB2726" points="704.3,573.5 825.7,573.5 825.7,516.7 706.3,516.7 	"/>
	<polygon fill-rule="evenodd" clip-rule="evenodd" fill="#BB2726" points="708.3,459.8 825.7,459.8 825.7,403 710.3,403 	"/>
	<polygon fill-rule="evenodd" clip-rule="evenodd" fill="#BB2726" points="712.3,346.2 825.7,346.2 825.7,289.3 714.3,289.3 	"/>
	<polygon fill-rule="evenodd" clip-rule="evenodd" fill="#BB2726" points="716.3,232.5 825.7,232.5 825.7,175.7 718.3,175.7 	"/>
	<path fill-rule="evenodd" clip-rule="evenodd" fill="#F7F4CA" d="M432.3,714.4v-480H330.1c-1,0-2,0-3-0.1L307,800l109.2-74.6
		L432.3,714.4z"/>
	<polygon fill-rule="evenodd" clip-rule="evenodd" fill="#BB2726" points="307.1,800 378.6,751.1 308.9,751.1 	"/>
	<polygon fill-rule="evenodd" clip-rule="evenodd" fill="#BB2726" points="310.9,694.3 432.3,694.3 432.3,637.5 312.9,637.5 	"/>
	<polygon fill-rule="evenodd" clip-rule="evenodd" fill="#BB2726" points="316.9,573.5 432.3,573.5 432.3,517.6 318.9,517.6 	"/>
	<polygon fill-rule="evenodd" clip-rule="evenodd" fill="#BB2726" points="318.9,467 432.3,467 432.3,410.1 320.9,410.1 	"/>
	<polygon fill-rule="evenodd" clip-rule="evenodd" fill="#BB2726" points="322.9,353.3 432.3,353.3 432.3,296.5 324.9,296.5 	"/>
</g>
</svg>
