<?xml version="1.0" encoding="utf-8"?>
<!-- Generator: Adobe Illustrator 22.0.0, SVG Export Plug-In . SVG Version: 6.00 Build 0)  -->
<svg version="1.1" id="图层_1" xmlns="http://www.w3.org/2000/svg" xmlns:xlink="http://www.w3.org/1999/xlink" x="0px" y="0px"
	 viewBox="0 0 1300 1500" enable-background="new 0 0 1300 1500" xml:space="preserve">
<g>
	<g>
		<path fill="#EA820B" d="M722.9,467l216.7-123.5c19.5-11.1,43.6-11.1,63.1,0L1219.5,467c19.5,11.1,31.5,31.7,31.5,53.9v246.8
			c0,22.2-12,42.8-31.5,53.9l-216.7,123.4c-19.5,11.1-43.6,11.1-63.1,0L722.9,821.6c-19.5-11.1-31.5-31.7-31.5-53.9V520.9
			C691.4,498.7,703.4,478.1,722.9,467z"/>
		<linearGradient id="SVGID_1_" gradientUnits="userSpaceOnUse" x1="691.3575" y1="644.2924" x2="971.1625" y2="644.2924">
			<stop  offset="6.866950e-02" style="stop-color:#FFCD2E"/>
			<stop  offset="0.8412" style="stop-color:#FFB52E"/>
		</linearGradient>
		<path fill="url(#SVGID_1_)" d="M971.2,433.3v421.9c0,47.9-52.6,77.8-94.6,53.9l-153.7-87.5c-19.5-11.1-31.5-31.7-31.5-53.9V520.9
			c0-22.2,12-42.8,31.5-53.9l153.7-87.5C918.6,355.5,971.2,385.4,971.2,433.3z"/>
	</g>
	<path fill="#3B301B" d="M1071.9,859.3l-89.2,77.3L977.6,805c-0.1-2.7-2.4-4.8-5.1-4.8c-2.7,0-5,2.1-5.1,4.8l-5.2,131.7L878,864.2
		c-1.9-1.7-5-1.6-6.9,0.2c-1.9,1.9-2,4.9-0.3,6.8l90,101.8l-12.3,312.5c0,1.4,0.5,2.7,1.4,3.7c0.9,1,2.3,1.6,3.7,1.6h37.6h0.2
		c2.8,0,5.1-2.3,5.1-5c0-0.5-0.1-1-0.2-1.4L984.2,973l95-106.6c1.7-2,1.7-5-0.3-6.8C1077,857.7,1074,857.6,1071.9,859.3z"/>
	<polygon fill="#634E42" points="972.6,810.2 972.6,1290.8 953.7,1290.8 966,975.8 965.9,976 874.7,872.9 967,952.4 	"/>
	<g>
		<g>
			<path fill="#EA820B" d="M486.9,663l104.8-59.7c31.8-18.1,70.9-18.1,102.7,0L799.1,663c31.8,18.1,51.3,51.5,51.3,87.7V870
				c0,36.2-19.5,69.6-51.3,87.7l-104.8,59.7c-31.8,18.1-70.9,18.1-102.7,0l-104.8-59.7c-31.8-18.1-51.4-51.5-51.4-87.7V750.8
				C435.6,714.6,455.1,681.1,486.9,663z"/>
			<linearGradient id="SVGID_2_" gradientUnits="userSpaceOnUse" x1="435.5609" y1="810.4069" x2="643.0043" y2="810.4069">
				<stop  offset="6.866950e-02" style="stop-color:#FFCD2E"/>
				<stop  offset="0.8412" style="stop-color:#FFB52E"/>
			</linearGradient>
			<path fill="url(#SVGID_2_)" d="M643,749.6v121.6c0,78-85.5,126.7-154,87.7l-2.1-1.2c-31.8-18.1-51.4-51.5-51.4-87.7V750.8
				c0-36.2,19.6-69.6,51.4-87.7l2.1-1.2C557.4,622.9,643,671.6,643,749.6z"/>
		</g>
		<path fill="#3B301B" d="M718.4,964.2l-66,57.2l-3.8-97.6c-0.1-2.4-2.1-4.4-4.6-4.4c-2.5,0-4.5,1.9-4.6,4.4l-3.8,97.6l-62.3-53.6
			c-1.8-1.6-4.6-1.5-6.3,0.2c-1.7,1.7-1.8,4.4-0.3,6.2l67.7,76.4l-9.2,235.3c0,1.3,0.4,2.5,1.3,3.4c0.9,0.9,2.2,1.4,3.4,1.4h28.3
			h0.1c2.5,0,4.6-2.1,4.6-4.6c0-0.4-0.1-0.9-0.2-1.3l-9.2-234.2l71.4-80.1c1.7-1.9,1.5-4.6-0.1-6.2
			C723,962.7,720.2,962.6,718.4,964.2z"/>
		<polygon fill="#634E42" points="644,924 644,1286.2 629.9,1286.2 639.1,1048.9 638.9,1049 570.2,971.3 639.8,1031.2 		"/>
	</g>
	<g>
		<path fill="#EA820B" d="M103.1,462.9l169.6-96.5c33.2-18.9,74.1-18.9,107.2,0l169.6,96.5c33.2,18.9,53.6,53.9,53.6,91.6v193.1
			c0,37.8-20.4,72.7-53.6,91.5l-169.6,96.6c-33.2,18.9-74.1,18.9-107.2,0l-169.6-96.6c-33.2-18.9-53.6-53.7-53.6-91.5V554.5
			C49.5,516.7,69.9,481.8,103.1,462.9z"/>
		<linearGradient id="SVGID_3_" gradientUnits="userSpaceOnUse" x1="49.4585" y1="651.0677" x2="326.2616" y2="651.0677">
			<stop  offset="6.866950e-02" style="stop-color:#FFCD2E"/>
			<stop  offset="0.8412" style="stop-color:#FFB52E"/>
		</linearGradient>
		<path fill="url(#SVGID_3_)" d="M326.3,519v264.1c0,81.4-89.3,132.3-160.8,91.6l-62.4-35.5c-33.2-18.9-53.6-53.7-53.6-91.5V554.5
			c0-37.8,20.5-72.7,53.6-91.6l62.4-35.5C236.9,386.7,326.3,437.6,326.3,519z"/>
	</g>
	<path fill="#3B301B" d="M417.1,903l-80,69.4l-4.7-118.2c-0.1-2.4-2.2-4.3-4.6-4.3c-2.5,0-4.5,1.9-4.6,4.3l-4.6,118.2l-75.7-65.1
		c-1.8-1.5-4.6-1.5-6.3,0.2c-1.7,1.7-1.8,4.4-0.2,6.2l80.9,91.4l-11,280.9c-0.1,1.2,0.4,2.4,1.2,3.3c0.9,0.9,2.1,1.4,3.3,1.4h33.8
		h0.1c2.6,0,4.6-2,4.6-4.5c0-0.4-0.1-0.8-0.2-1.2l-11-279.8l85.3-95.7c1.6-1.8,1.5-4.5-0.2-6.2C421.7,901.5,419,901.4,417.1,903z"/>
	<polygon fill="#634E42" points="327.8,858.9 327.8,1290.8 310.9,1290.8 322,1007.8 321.9,1007.9 239.9,915.3 322.8,986.7 	"/>
</g>
</svg>
