<?xml version="1.0" standalone="no"?><!DOCTYPE svg PUBLIC "-//W3C//DTD SVG 1.1//EN" "http://www.w3.org/Graphics/SVG/1.1/DTD/svg11.dtd"><svg t="1598174657603" class="icon" viewBox="0 0 1403 1024" version="1.1" xmlns="http://www.w3.org/2000/svg" p-id="963" xmlns:xlink="http://www.w3.org/1999/xlink" width="274.0234375" height="200"><defs><style type="text/css"></style></defs><path d="M8.757127 180.396807v618.253136c0 135.443558 146.535918 219.511973 263.297605 152.374002l535.352338-309.418472c117.345496-67.721779 117.345496-236.442417 0-304.164196l-535.352338-309.418472C155.293044-39.115165 8.757127 44.95325 8.757127 180.396807z" fill="#28A9F7" p-id="964"></path><path d="M925.920182 145.368301l-62.467502 36.196123-62.467503 36.196123-300.077537 172.807298c-74.72748 43.201824-74.72748 151.790194 0 194.992018l300.077537 173.391106 62.467503 36.196123 62.467502 36.196124L1225.997719 1004.150513c74.72748 43.201824 168.720639-11.09236 168.720639-97.496009v-490.399088c0-240.529076-260.378563-391.151653-468.798176-270.887115z" fill="#14EB72" p-id="965"></path><path d="M903.735462 392.903079L700.570125 275.557583 500.90764 390.567845c-74.72748 43.201824-74.72748 151.790194 0 194.992018l201.997719 116.761688 200.246294-115.594071c74.72748-43.201824 74.72748-151.206385 0.583809-193.824401z" fill="#FFFFFF" p-id="966"></path><path d="M1019.913341 163.466363c22.768529 8.173318 67.721779 30.941847 92.825542 78.814139s78.814139 64.802737 103.917901 64.802736c33.860889 0 66.554162 7.005701 103.917902 30.941848 35.028506 22.768529 65.970353 76.478905 73.559864 136.611174v-58.380844c0-240.529076-260.378563-391.151653-468.798176-270.887115l-44.95325 26.27138c60.716078-25.103763 119.68073-15.762828 139.530217-8.173318z" fill="#92F4B0" p-id="967"></path></svg>